<?xml version="1.0" encoding="UTF-8"?>
<svg xmlns="http://www.w3.org/2000/svg" viewBox="0 0 512 512" fill="#FFFFFF">
  <path d="M160 32.01c-8.838 0-16 7.163-16 16v128h-34.75c-8.375 0-16.38 3.375-22.25 9.375L4.75 265.4c-6.125 6-9.384 14.13-9.384 22.63s3.259 16.63 9.384 22.63l82.25 80c5.875 6 13.88 9.375 22.25 9.375H144v128c0 8.837 7.163 16 16 16s16-7.163 16-16v-128h32c8.837 0 16-7.163 16-16v-96c0-8.837-7.163-16-16-16h-32v-128C176 39.17 168.8 32.01 160 32.01zM507.3 265.4l-82.25-80c-5.875-6-13.88-9.375-22.25-9.375H368v-128c0-8.837-7.163-16-16-16s-16 7.163-16 16v128h-32c-8.837 0-16 7.163-16 16v96c0 8.837 7.163 16 16 16h32v128c0 8.837 7.163 16 16 16s16-7.163 16-16v-128h34.75c8.375 0 16.38-3.375 22.25-9.375l82.25-80c6.125-6 9.366-14.13 9.366-22.63S513.4 271.4 507.3 265.4z"/>
</svg>
