<?xml version="1.0" encoding="UTF-8"?>
<svg xmlns="http://www.w3.org/2000/svg" viewBox="0 0 640 512" fill="#FFFFFF">
  <path d="M104 96h-48C43.16 96 32 106.8 32 120v272c0 13.2 11.16 24 24 24h48c13.2 0 24-10.8 24-24V120C128 106.8 116.8 96 104 96zM456 32h-48c-13.2 0-24 10.8-24 24v368c0 13.2 10.8 24 24 24h48c13.2 0 24-10.8 24-24V56C480 42.8 469.2 32 456 32zM320 128C293.5 128 272 149.5 272 176v160c0 26.5 21.5 48 48 48s48-21.5 48-48v-160C368 149.5 346.5 128 320 128zM320 0C310.1 0 304 6.12 304 16v64c0 8.836 7.164 16 16 16s16-7.164 16-16v-64C336 6.12 329.9 0 320 0zM584 96h-48C522.8 96 512 106.8 512 120v272c0 13.2 10.8 24 24 24h48c13.2 0 24-10.8 24-24V120C608 106.8 597.2 96 584 96zM320 416c-9.875 0-16 6.125-16 16v64c0 9.875 6.125 16 16 16s16-6.125 16-16v-64C336 422.1 329.9 416 320 416z"/>
</svg>
